<?xml version="1.0" encoding="UTF-8"?>
<svg version="1.1" xmlns="http://www.w3.org/2000/svg" width="2000" height="2000">
<path d="M0 0 C660 0 1320 0 2000 0 C2000 660 2000 1320 2000 2000 C1340 2000 680 2000 0 2000 C0 1340 0 680 0 0 Z " fill="none" transform="translate(0,0)"/>
<path d="M0 0 C32.01 0 64.02 0 97 0 C97.04030303 52.68950007 97.04030303 52.68950007 97.04882812 74.8359375 C97.05475259 90.10351906 97.06170243 105.37109508 97.07543945 120.63867188 C97.08544099 131.75991051 97.0918664 142.88114464 97.09408849 154.00238764 C97.09538634 159.88497325 97.09841315 165.76754596 97.10573006 171.65012741 C97.11257677 177.20027444 97.11459956 182.75040342 97.11310768 188.30055428 C97.11338015 190.32481675 97.1153335 192.34907991 97.11920547 194.3733387 C97.1761891 225.73356797 97.1761891 225.73356797 94.75 240.625 C94.55603638 241.84558105 94.55603638 241.84558105 94.3581543 243.09082031 C93.92517216 245.7310403 93.46759125 248.3656965 93 251 C92.83516113 251.93618164 92.67032227 252.87236328 92.50048828 253.83691406 C84.03695046 300.67214371 62.29304754 345.54709229 22.75048828 373.78857422 C12.1651376 381.11416838 0.81521381 386.93483493 -11 392 C-11.6997998 392.30147949 -12.39959961 392.60295898 -13.12060547 392.91357422 C-33.2242808 401.37900883 -55.49443986 405.77416598 -77 409 C-78.27359375 409.19207031 -79.5471875 409.38414062 -80.859375 409.58203125 C-95.19889179 411.61590149 -109.41394354 412.14412258 -123.875 412.0625 C-125.4492173 412.05746796 -127.02343619 412.05290811 -128.59765625 412.04882812 C-132.39847768 412.0379736 -136.19922056 412.02080602 -140 412 C-140 408.7 -140 405.4 -140 402 C-139.07477539 401.96036133 -138.14955078 401.92072266 -137.19628906 401.87988281 C-101.59084773 400.27874371 -64.35413745 396.58638206 -38.63623047 368.51123047 C-28.59862884 356.81976877 -21.61355517 343.28177996 -16 329 C-15.55785156 327.87980469 -15.11570312 326.75960938 -14.66015625 325.60546875 C1.49697362 282.63437867 -0.6885048 234.42555005 -0.59528303 189.29327059 C-0.58107017 183.29864743 -0.55796873 177.30406306 -0.53501268 171.30946867 C-0.48992789 159.46316629 -0.45315817 147.61685411 -0.421875 135.77050781 C-0.39153013 124.28644095 -0.35710901 112.80239778 -0.31738281 101.31835938 C-0.31492126 100.60637515 -0.31245972 99.89439092 -0.30992357 99.16083141 C-0.29754591 95.58778904 -0.28508997 92.01474695 -0.27259517 88.44170499 C-0.16960342 58.96116834 -0.08179267 29.48060451 0 0 Z " fill="#003D20" transform="translate(1104,1197)"/>
<path d="M0 0 C93.06 0 186.12 0 282 0 C282 2.97 282 5.94 282 9 C281.30140869 9.01458252 280.60281738 9.02916504 279.88305664 9.04418945 C255.40460635 9.61308174 226.61262881 10.45031265 207.546875 28.2890625 C194.64314491 42.56137002 189.68219118 60.81151141 189.7215271 79.69987488 C189.7128385 81.22692904 189.7128385 81.22692904 189.70397437 82.78483278 C189.68709622 86.16412398 189.68410841 89.54327762 189.68115234 92.92260742 C189.67184576 95.35769989 189.661676 97.79278919 189.65071106 100.22787476 C189.6291085 105.45405288 189.61346253 110.68021206 189.60334396 115.90642357 C189.58870409 123.46246841 189.56315272 131.01844605 189.53501268 138.57445125 C189.48964067 150.83615601 189.45298641 163.09787051 189.421875 175.35961914 C189.39165004 187.26458441 189.35728176 199.16952594 189.31738281 211.07446289 C189.31492126 211.80936084 189.31245972 212.54425879 189.30992357 213.30142637 C189.29754821 216.98851522 189.28509182 220.6756038 189.27259517 224.36269224 C189.1691711 254.908433 189.08153769 285.45419073 189 316 C156.99 316 124.98 316 92 316 C91.9906543 308.48549072 91.98130859 300.97098145 91.97167969 293.22875977 C91.93891042 269.13257724 91.88658216 245.03647743 91.82207905 220.94036076 C91.81206266 217.19193035 91.80221835 213.4434995 91.79248047 209.69506836 C91.7905391 208.94888333 91.78859772 208.2026983 91.78659752 207.4339016 C91.75565145 195.38208551 91.73861759 183.33028842 91.72680578 171.27844013 C91.71435577 158.89449826 91.68676808 146.51065544 91.64538693 134.12677616 C91.62036116 126.49701792 91.60687468 118.86742414 91.60857043 111.23762428 C91.60860395 105.36819505 91.5874858 99.49895568 91.55883217 93.6295929 C91.55036931 91.23565022 91.54855842 88.84167248 91.55419731 86.44772148 C91.5968666 65.53418106 90.18422489 44.83715328 74.99609375 28.76953125 C67.70239836 22.3036917 59.07353683 18.32737278 50 15 C49.20207031 14.70222656 48.40414063 14.40445313 47.58203125 14.09765625 C32.50056776 9.01997759 15.72094221 9.48438775 0 9 C0 6.03 0 3.06 0 0 Z " fill="#003D20" transform="translate(1012,684)"/>
<path d="M0 0 C16.5 0 33 0 50 0 C53.0565231 7.33565544 56.07972471 14.65361233 58.94140625 22.0625 C59.30123596 22.99058472 59.66106567 23.91866943 60.03179932 24.87487793 C61.21028797 27.91597284 62.38646659 30.95795485 63.5625 34 C64.40512997 36.17645633 65.2478234 38.35288809 66.09057617 40.52929688 C72.85582634 58.00875818 79.58622689 75.50160637 86.30932617 92.99731445 C92.48430125 109.06596368 98.6749457 125.1285114 104.875 141.1875 C105.55953751 142.96065079 105.55953751 142.96065079 106.25790405 144.7696228 C109.5048256 153.17991991 112.75233671 161.5899893 116 170 C128.89836293 203.40105196 141.79349513 236.80329879 154.62786865 270.22900391 C156.7939984 275.86838087 158.96678232 281.50511415 161.14756775 287.13883972 C162.39865854 290.37229907 163.64610013 293.60715801 164.89279175 296.84231567 C165.45702166 298.30368098 166.02299569 299.76437427 166.59085083 301.22433472 C167.35153034 303.18040477 168.10619039 305.1386907 168.859375 307.09765625 C169.27670898 308.17539307 169.69404297 309.25312988 170.12402344 310.36352539 C171 313 171 313 171 316 C138.66 316 106.32 316 73 316 C69.04 305.31625 65.08 294.6325 61 283.625 C53.82688027 264.28659369 46.65238919 244.9514772 39.25320435 225.69818115 C25.20691102 189.14273125 12.49066316 152.1288316 0.01300049 115.01281738 C-0.68365814 112.94084875 -1.38117546 110.86916869 -2.07940674 108.79772949 C-3.16098284 105.58736655 -4.23913517 102.37587229 -5.31640625 99.1640625 C-5.64172836 98.19951141 -5.96705048 97.23496033 -6.30223083 96.24118042 C-9.19848256 87.58205237 -11.6811828 78.82934243 -14 70 C-16.14912245 73.22368367 -17.24492642 76.37668717 -18.42333984 80.02124023 C-18.65794922 80.73438385 -18.89255859 81.44752747 -19.13427734 82.18228149 C-19.91412549 84.55633432 -20.68748235 86.93245119 -21.4609375 89.30859375 C-22.01183353 90.98940205 -22.56316216 92.67006861 -23.11489868 94.3506012 C-24.57740483 98.80877353 -26.03457324 103.26867222 -27.49047852 107.72900391 C-28.92457076 112.1203424 -30.36260128 116.51038948 -31.80078125 120.90039062 C-32.08201277 121.75887258 -32.36324429 122.61735453 -32.65299797 123.50185108 C-33.22100117 125.2355762 -33.78904961 126.96928651 -34.3571434 128.70298195 C-34.92839956 130.44634349 -35.49957872 132.18973026 -36.07068253 133.93314171 C-45.25953622 161.98111794 -54.5949398 189.96443417 -64.375 217.8125 C-65.30810448 220.47465443 -66.24038985 223.13709543 -67.17260742 225.79956055 C-68.62272139 229.94073456 -70.07304638 234.08183381 -71.52464294 238.2224884 C-74.85758032 247.73051761 -78.17981204 257.24223925 -81.49541473 266.75632668 C-82.27000312 268.97893673 -83.04478769 271.2014783 -83.81964111 273.42399597 C-84.32653831 274.87796013 -84.83343528 276.33192436 -85.34033203 277.78588867 C-85.71214851 278.85239167 -85.71214851 278.85239167 -86.09147644 279.94044018 C-87.32128065 283.46820926 -88.55067221 286.99612118 -89.77923584 290.52432251 C-91.13912353 294.42948577 -92.50112737 298.33390789 -93.86328125 302.23828125 C-94.26949203 303.40597046 -94.67570282 304.57365967 -95.09422302 305.7767334 C-95.64953453 307.36705383 -95.64953453 307.36705383 -96.21606445 308.98950195 C-96.53831497 309.91422806 -96.86056549 310.83895416 -97.19258118 311.79170227 C-98 314 -98 314 -99 316 C-102.63 316 -106.26 316 -110 316 C-97.55496768 278.18080542 -84.43468315 240.59388872 -71.25830078 203.02441406 C-66.64256138 189.85985676 -62.06769036 176.68129681 -57.5 163.5 C-52.07833708 147.85475092 -46.6346032 132.21759884 -41.15576172 116.59228516 C-36.60750229 103.61860452 -32.0916114 90.63390389 -27.58969116 77.64407349 C-22.10227148 61.81128404 -16.61456828 45.97855514 -11.09277344 30.15771484 C-10.49838269 28.45373059 -9.90477026 26.7494746 -9.31201172 25.04492188 C-8.49537142 22.69713985 -7.67579877 20.35040119 -6.85546875 18.00390625 C-6.50810921 17.00243309 -6.50810921 17.00243309 -6.1537323 15.98072815 C-4.25773102 10.57414582 -2.13457899 5.33644749 0 0 Z " fill="#013E21" transform="translate(699,684)"/>
<path d="M0 0 C33 0 66 0 100 0 C117.95866948 46.01909054 117.95866948 46.01909054 125.86734009 66.57177734 C128.6388532 73.7689085 131.42046842 80.96214431 134.20045471 88.15600586 C136.17346895 93.26331144 138.14435861 98.37136138 140.10253906 103.484375 C152.97112025 140.8189308 152.97112025 140.8189308 181.75 165.8125 C186.52343746 167.55664061 190.8902909 168.13452326 195.95703125 168.31640625 C197.06884766 168.35830078 198.18066406 168.40019531 199.32617188 168.44335938 C200.47666016 168.48267578 201.62714844 168.52199219 202.8125 168.5625 C203.98232422 168.60568359 205.15214844 168.64886719 206.35742188 168.69335938 C209.23817031 168.79918279 212.11900123 168.90126825 215 169 C215 172.3 215 175.6 215 179 C126.89 179 38.78 179 -52 179 C-52 175.7 -52 172.4 -52 169 C-50.78231934 168.9906543 -49.56463867 168.98130859 -48.31005859 168.97167969 C-10.43665956 170.12609961 -10.43665956 170.12609961 25 159 C26.093125 158.443125 27.18625 157.88625 28.3125 157.3125 C34.62444969 151.88128748 38.25019985 144.23570814 39 136 C40.39148811 107.89799003 30.0995122 82.97319105 20.39239502 57.10992432 C19.37190168 54.38722894 18.3567284 51.66256566 17.34186172 48.93776894 C11.48091186 33.18842917 11.48091186 33.18842917 5.49121094 17.48779297 C5.1133847 16.50822128 4.73555847 15.5286496 4.34628296 14.51939392 C3.65303669 12.72735577 2.95543974 10.93699189 2.25259399 9.1486969 C1.95186981 8.37187057 1.65114563 7.59504425 1.34130859 6.79467773 C1.08014252 6.12830795 0.81897644 5.46193817 0.54989624 4.77537537 C0 3 0 3 0 0 Z " fill="#003D20" transform="translate(847,1197)"/>
<path d="M0 0 C4.75 0.75 4.75 0.75 7 3 C8.04792323 10.71652558 6.3008409 17.69641329 4 25 C3.01 28.465 3.01 28.465 2 32 C11.9 32 21.8 32 32 32 C32 33.32 32 34.64 32 36 C21.44 36.66 10.88 37.32 0 38 C-0.99 40.330625 -1.98 42.66125 -3 45.0625 C-3.31324219 45.78187744 -3.62648438 46.50125488 -3.94921875 47.24243164 C-6.14347577 52.57061593 -6.98375259 57.14550478 -5.046875 62.765625 C-4.61890625 63.58546875 -4.1909375 64.4053125 -3.75 65.25 C-3.12351562 66.49523438 -3.12351562 66.49523438 -2.484375 67.765625 C-0.85073847 70.22467788 0.44005843 71.53385165 3 73 C14.75018335 75.08349897 23.96444536 69.43877373 33.30078125 63.03125 C35.55576925 61.33429811 37.49672043 59.66057343 39.4375 57.625 C42.76065556 54.22079186 45.09423788 53.08470054 49.8125 52.875 C50.534375 52.91625 51.25625 52.9575 52 53 C52.33 53.99 52.66 54.98 53 56 C54.65 55.67 56.3 55.34 58 55 C60.02350324 58.03525486 60.32124018 59.19426202 60.625 62.6875 C60.73714844 63.89986328 60.73714844 63.89986328 60.8515625 65.13671875 C60.90054687 65.75160156 60.94953125 66.36648438 61 67 C74.86686632 67.98398263 86.12553002 66.01239669 97.25 57.0625 C97.91515625 56.45535156 98.5803125 55.84820313 99.265625 55.22265625 C99.83796875 54.81917969 100.4103125 54.41570312 101 54 C101.99 54.33 102.98 54.66 104 55 C103.67 58.3 103.34 61.6 103 65 C104.8871875 63.576875 104.8871875 63.576875 106.8125 62.125 C114.61349889 56.24227953 114.61349889 56.24227953 121 57 C124.08636248 58.72533849 126.59681575 60.68135032 127.6640625 64.171875 C127.77492188 64.77515625 127.88578125 65.3784375 128 66 C128.56847656 65.50628906 129.13695312 65.01257812 129.72265625 64.50390625 C133.32350536 61.51622344 136.30154575 59.24445899 140.75 57.6875 C144 58 144 58 146.75 60.625 C148.15625242 62.59284023 149.31834447 64.57036717 150.5 66.6875 C152.35327902 69.54463849 153.96237949 70.48118974 157 72 C166.03637864 73.4008911 173.05172123 71.4014484 180.44921875 66.31640625 C185.58878342 62.46793995 189.27129625 58.87720809 192 53 C193.32 53.33 194.64 53.66 196 54 C195.125 59.75 195.125 59.75 194 62 C193.58297878 64.9157691 193.58297878 64.9157691 194 68 C195.8670991 70.30275556 197.35647741 71.67823871 200 73 C216.59767884 74.60032716 227.2113807 68.02983939 239.65234375 57.82421875 C242.0488686 55.96202723 244.17042627 55.04247453 247 54 C247.99 53.34 248.98 52.68 250 52 C253.8973724 51.49164708 255.50556726 51.67037817 258.8125 53.875 C261 56 261 56 262 58 C263.5804609 56.4195391 263.27447022 54.70474123 263.4296875 52.51171875 C263.5366394 51.11904785 263.5366394 51.11904785 263.64575195 49.69824219 C263.72140381 48.70469727 263.79705566 47.71115234 263.875 46.6875 C265.09462412 32.31919918 267.30174964 18.3547491 277.3828125 7.28125 C280.1115111 5.11938251 282.6104881 4.93481708 286 5 C288 7 288 7 288.375 10.3125 C288.06809905 21.17460133 282.59731956 31.58844225 277.875 41.125 C277.33746094 42.23359375 276.79992187 43.3421875 276.24609375 44.484375 C272.34250992 52.48623512 272.34250992 52.48623512 270 56 C270.34385732 62.07481264 271.78824465 66.8432439 276.19921875 71.14453125 C281.34140228 74.55113819 287.06197655 73.61449451 293 73 C300.33755455 71.42069563 306.55823575 68.41086833 312.84375 64.3671875 C315 63 315 63 317.23046875 61.9609375 C319.23638667 61.12538378 319.23638667 61.12538378 319.8125 58.75 C321.988071 53.71183557 326.48833081 50.92551175 331.0625 48.125 C334.37561112 46.85614893 336.48813971 46.46558648 340 47 C342.4375 48.625 342.4375 48.625 344 51 C344.0625 54 344.0625 54 343 57 C340.8125 59.1875 340.8125 59.1875 338 61 C337.113125 61.5775 336.22625 62.155 335.3125 62.75 C330.81780789 64.44611023 326.74839026 64.2533726 322 64 C322.5946897 66.67610366 323.2834993 68.47555924 325.53833008 70.12597656 C331.14667651 73.09178491 335.89746735 73.63246399 342.1875 73.5 C343.1144165 73.48718994 344.04133301 73.47437988 344.99633789 73.46118164 C360.56079055 73.00392242 374.87195551 66.23172742 387.23046875 56.96875 C387.81441406 56.6490625 388.39835937 56.329375 389 56 C389.99 56.33 390.98 56.66 392 57 C391.87890625 58.73046875 391.87890625 58.73046875 391 61 C388.99603349 62.63029456 387.12073502 63.96686385 384.9375 65.3125 C384.31770264 65.70058838 383.69790527 66.08867676 383.05932617 66.48852539 C367.15779087 76.16349618 349.47920175 82.09955239 330.7421875 78.34765625 C324.28310029 76.29729206 320.90938623 73.49427254 317 68 C316.09121094 68.58007812 316.09121094 68.58007812 315.1640625 69.171875 C307.73484572 73.78941897 299.88250201 78.28939984 291 79 C289.65615234 79.12955078 289.65615234 79.12955078 288.28515625 79.26171875 C281.57167682 79.64268543 277.2410443 78.9138696 271.84765625 74.79296875 C269.06047978 72.08828799 267.57122366 69.55233174 266 66 C266 65.34 266 64.68 266 64 C262.3298681 67.55891579 259.00695145 71.29183462 255.74609375 75.23046875 C252.80473474 78.21130909 250.59373502 78.93750158 246.4375 79.375 C243 79 243 79 241.296875 77.3046875 C239.74659077 74.54966433 239.68872179 72.88571467 239.8125 69.75 C239.83957031 68.85796875 239.86664062 67.9659375 239.89453125 67.046875 C239.92933594 66.37140625 239.96414063 65.6959375 240 65 C239.0821875 65.60328125 238.164375 66.2065625 237.21875 66.828125 C225.18172772 74.6887697 215.91560296 80.31712962 201 79 C196.65860713 77.64247467 192.8831041 75.57471578 190 72 C189.3125 69.3125 189.3125 69.3125 189 67 C188.38253906 67.45890625 187.76507812 67.9178125 187.12890625 68.390625 C177.92834443 75.05648105 170.65048483 79.3787556 159 78 C153.17932493 76.87600757 149.90095123 74.40426033 146.2265625 69.81640625 C144.96183314 67.94347901 143.9610085 66.04326574 143 64 C138.22218804 64.42157164 135.24591893 66.63847299 132 70 C130.51642344 71.94462651 129.2688717 73.90148142 128 76 C126.68 75.67 125.36 75.34 124 75 C123.86722656 74.30132813 123.73445313 73.60265625 123.59765625 72.8828125 C123.42105469 71.97273438 123.24445313 71.06265625 123.0625 70.125 C122.88847656 69.22007813 122.71445312 68.31515625 122.53515625 67.3828125 C122.10036299 65.00043683 122.10036299 65.00043683 121 63 C118.15390541 62.44315541 116.76498767 62.27572004 114 63 C109.36254568 66.32362729 105.32013292 70.19707561 101.94921875 74.80078125 C101.30597656 75.52652344 100.66273438 76.25226563 100 77 C98.68 77 97.36 77 96 77 C95.91030532 72.51526599 96.20689072 68.40893819 97 64 C96.21496094 64.40992188 95.42992187 64.81984375 94.62109375 65.2421875 C93.04521484 66.05042969 93.04521484 66.05042969 91.4375 66.875 C90.40496094 67.40867187 89.37242187 67.94234375 88.30859375 68.4921875 C81.66364676 71.52046323 75.93298019 72.29936608 68.75 72.1875 C67.94820312 72.18685547 67.14640625 72.18621094 66.3203125 72.18554688 C62.97359527 72.16036255 60.19434355 72.06478118 57 71 C56.731875 71.61875 56.46375 72.2375 56.1875 72.875 C55 75 55 75 52 77 C47.45787705 77.59990303 45.55276619 77.36503428 41.6875 74.8125 C39.1083081 72.11334569 38.22554372 70.42346719 37 67 C36.31035156 67.45890625 35.62070312 67.9178125 34.91015625 68.390625 C25.06636817 74.818119 16.04969124 80.11454387 4 79 C-2.75632936 76.74789021 -6.56743529 71.62636864 -9.875 65.5625 C-10.24625 64.716875 -10.6175 63.87125 -11 63 C-11.60585938 63.51949219 -12.21171875 64.03898437 -12.8359375 64.57421875 C-22.84843257 72.90769541 -31.54476498 77.52407899 -44.66796875 77.40625 C-49.87538314 76.77134836 -53.27497427 74.6152355 -57 71 C-57.93546684 69.73674154 -58.83489327 68.44559907 -59.6875 67.125 C-61.66775917 63.78761714 -61.66775917 63.78761714 -64.8125 63.1875 C-72.77216333 65.21643379 -78.50345611 72.24032369 -84 78 C-85.485 77.505 -85.485 77.505 -87 77 C-86.67 72.71 -86.34 68.42 -86 64 C-86.81082031 64.59167969 -87.62164063 65.18335938 -88.45703125 65.79296875 C-100.31692662 74.30702665 -110.98162792 80.22635228 -126 79 C-131.28572265 77.68067018 -134.09066722 75.30795469 -137 70.75 C-137.68722627 69.51118423 -138.36154094 68.26464006 -139 67 C-139.69222656 67.38671875 -140.38445312 67.7734375 -141.09765625 68.171875 C-152.63480823 74.31286235 -163.50368947 77.32538058 -176.5 77.4375 C-177.33660156 77.44765137 -178.17320312 77.45780273 -179.03515625 77.46826172 C-185.16837905 77.38089037 -190.16037068 76.47322553 -194.9375 72.3125 C-195.288125 71.879375 -195.63875 71.44625 -196 71 C-196.45890625 71.5775 -196.9178125 72.155 -197.390625 72.75 C-198.00421875 73.4925 -198.6178125 74.235 -199.25 75 C-199.85328125 75.7425 -200.4565625 76.485 -201.078125 77.25 C-203 79 -203 79 -207 79 C-207.50668857 57.7042645 -205.85723671 28.01867549 -193 10 C-188.74391526 6.10414814 -188.74391526 6.10414814 -184.875 5.5625 C-182 6 -182 6 -180.125 7 C-177.84151534 11.05952829 -178.71007446 15.94075449 -179.890625 20.25390625 C-184.05685049 30.394116 -189.04215742 40.0422684 -194.1953125 49.71484375 C-194.67129883 50.61444824 -195.14728516 51.51405273 -195.63769531 52.44091797 C-196.50888758 54.07744796 -197.39251943 55.70745471 -198.29199219 57.32861328 C-200.47430427 61.06218838 -200.47430427 61.06218838 -200.59814453 65.22241211 C-200.40075684 65.80901611 -200.20336914 66.39562012 -200 67 C-199.05640625 66.20335937 -199.05640625 66.20335937 -198.09375 65.390625 C-185.83561644 55.2739726 -185.83561644 55.2739726 -178.5 54.75 C-177.675 54.8325 -176.85 54.915 -176 55 C-175.67 56.32 -175.34 57.64 -175 59 C-175.74765625 59.39832031 -176.4953125 59.79664063 -177.265625 60.20703125 C-178.25046875 60.73683594 -179.2353125 61.26664063 -180.25 61.8125 C-181.71179688 62.59560547 -181.71179688 62.59560547 -183.203125 63.39453125 C-185.64826453 64.79809598 -187.87283378 66.15139126 -190 68 C-190 68.66 -190 69.32 -190 70 C-178.99664807 75.09414441 -165.05471426 71.66240944 -154 68 C-145.55833273 64.87746011 -138.45137494 61.16085405 -134 53 C-132.515 53.495 -132.515 53.495 -131 54 C-131.165 54.61875 -131.33 55.2375 -131.5 55.875 C-131.94133839 58.63336493 -132.23501989 61.27524892 -132.375 64.0625 C-132.42398438 64.89910156 -132.47296875 65.73570313 -132.5234375 66.59765625 C-132.16813741 69.2041732 -132.16813741 69.2041732 -129.89453125 71.27734375 C-124.07286713 74.74205883 -116.67379948 73.88192061 -110.25 72.33984375 C-101.04350184 68.93166895 -92.75384903 63.20264605 -85.8515625 56.28515625 C-84 55 -84 55 -79 55 C-79 58.3 -79 61.6 -79 65 C-78.37351562 64.57847656 -77.74703125 64.15695312 -77.1015625 63.72265625 C-75.87566406 62.90087891 -75.87566406 62.90087891 -74.625 62.0625 C-73.40683594 61.24458984 -73.40683594 61.24458984 -72.1640625 60.41015625 C-68.23253675 57.84827756 -65.74566087 57.45337938 -61 58 C-58.7556113 59.94414597 -57.12585025 61.59461421 -55.3125 63.875 C-50.61570524 69.65731127 -50.61570524 69.65731127 -43.9140625 72.44140625 C-35.41306785 72.89111757 -29.10593347 69.11830523 -22 65 C-21.04480469 64.55269531 -20.08960938 64.10539062 -19.10546875 63.64453125 C-16.13902583 61.97678303 -14.73630022 60.95664559 -13 58 C-11.93067951 51.65135695 -12.60202152 45.41187549 -13 39 C-21.58 39.33 -30.16 39.66 -39 40 C-39.33 38.68 -39.66 37.36 -40 36 C-38.23320707 34.23320707 -35.65288974 34.66095912 -33.25 34.5 C-32.0846875 34.4175 -30.919375 34.335 -29.71875 34.25 C-27.23958333 34.08333333 -24.76041667 33.91666667 -22.28125 33.75 C-21.1159375 33.6675 -19.950625 33.585 -18.75 33.5 C-17.67234375 33.4278125 -16.5946875 33.355625 -15.484375 33.28125 C-13.06045035 33.26814268 -13.06045035 33.26814268 -12 32 C-11.72208269 30.2751002 -11.47881081 28.54459785 -11.25 26.8125 C-9.68717402 17.12297894 -7.21731332 7.01110437 0 0 Z " fill="#9C8679" transform="translate(737,1042)"/>
<path d="M0 0 C1.32 0 2.64 0 4 0 C5.22126283 2.44252565 5.15067944 4.07201574 5.18945312 6.80322266 C5.21452942 8.30848007 5.21452942 8.30848007 5.2401123 9.84414673 C5.26047546 11.48750504 5.26047546 11.48750504 5.28125 13.1640625 C5.29965942 14.30289886 5.31806885 15.44173523 5.33703613 16.61508179 C5.39590732 20.28500059 5.44847224 23.95497127 5.5 27.625 C5.7016481 41.53118036 5.91201786 55.43653259 6.40625 69.3359375 C6.43521362 70.31237213 6.46417725 71.28880676 6.49401855 72.29483032 C6.6998156 77.49935047 7.0881152 82.12644946 9 87 C13.83521761 89.85966842 18.94210902 90.76741167 24.4375 91.6875 C25.53481445 91.88182617 25.53481445 91.88182617 26.65429688 92.08007812 C28.434877 92.39429815 30.21726583 92.69824068 32 93 C32 94.32 32 95.64 32 97 C25.52090011 97.21089294 20.16628631 96.97321162 14 95 C11.20755955 94.83071457 11.20755955 94.83071457 9 95 C9.36560028 98.72912289 9.66857996 101.45188224 11.625 104.6875 C13 107 13 107 12.6875 109.3125 C12.3471875 110.1478125 12.3471875 110.1478125 12 111 C10.1875 110.875 10.1875 110.875 8 110 C5.44511214 105.67233281 4.28455034 101.53153979 3.3125 96.625 C2.93544922 94.75714844 2.93544922 94.75714844 2.55078125 92.8515625 C2.36902344 91.91054687 2.18726563 90.96953125 2 90 C1.44054687 89.84144531 0.88109375 89.68289063 0.3046875 89.51953125 C-6.17242096 87.63471352 -12.42565528 85.36184611 -18.703125 82.890625 C-22.45292198 81.87764667 -24.34420116 81.66746628 -28 83 C-29.89260368 85.18628356 -31.35142118 87.14660132 -32.875 89.5625 C-33.74484405 90.8485545 -34.61985501 92.13112942 -35.5 93.41015625 C-35.92539062 94.03035645 -36.35078125 94.65055664 -36.7890625 95.28955078 C-42.19755807 102.92905077 -49.12181729 107.98913804 -58 111 C-69.26620794 112.74546884 -80.03091328 108.97654249 -90 104 C-90.99902344 103.50628906 -91.99804688 103.01257812 -93.02734375 102.50390625 C-107.95293615 94.81926712 -123.84900384 83.44894131 -133 69 C-133.61875 68.030625 -134.2375 67.06125 -134.875 66.0625 C-136.38419088 61.95414705 -136.86698672 58.31902557 -136 54 C-133.47031526 50.71824682 -131.92268669 49.30756223 -128 48 C-117.33709212 47.21463001 -107.38101404 48.81021833 -97 51 C-96.2997168 51.14453613 -95.59943359 51.28907227 -94.87792969 51.43798828 C-81.19539108 54.30465472 -68.16056637 58.64448451 -55.10546875 63.609375 C-53.29925049 64.29265869 -53.29925049 64.29265869 -51.45654297 64.98974609 C-49.06713286 65.89806131 -46.68183892 66.81729587 -44.30126953 67.74853516 C-38.66759055 69.89622618 -34.05463457 71.64839791 -28 71 C-19.67591522 57.19012869 -14.47646317 42.0955365 -9 27 C-8.77258118 26.37825897 -8.54516235 25.75651794 -8.31085205 25.11593628 C-7.62958391 23.25302154 -6.95341755 21.38824361 -6.27734375 19.5234375 C-5.881521 18.43337402 -5.48569824 17.34331055 -5.07788086 16.22021484 C-3.64726742 11.94619644 -2.576139 7.62289083 -1.578125 3.23046875 C-1 1 -1 1 0 0 Z " fill="#FEFDFD" transform="translate(496,1009)"/>
<path d="M0 0 C3.63 0 7.26 0 11 0 C8.88168351 8.13538536 6.3523683 16.02445281 3.54296875 23.9453125 C3.11752274 25.15460419 2.69207672 26.36389587 2.2537384 27.60983276 C1.13007213 30.80358022 0.00180755 33.99568351 -1.12750244 37.18743896 C-2.2577378 40.38438464 -3.38354461 43.58288846 -4.50976562 46.78125 C-11.41595645 66.38210615 -11.41595645 66.38210615 -13.87524414 73.23461914 C-16.47279905 80.48487535 -18.94736806 87.70733929 -20.8125 95.1875 C-21.01552734 95.96673828 -21.21855469 96.74597656 -21.42773438 97.54882812 C-25.33547365 112.7799835 -26.79416174 130.22077284 -18.6796875 144.2890625 C-15.27587277 149.25528399 -11.04565605 152.77504133 -6 156 C-5.44183594 156.35707031 -4.88367188 156.71414063 -4.30859375 157.08203125 C18.41539778 169.84203544 47.84006217 168.08316992 73 168.5625 C75.1432354 168.60581243 77.28646465 168.64943017 79.4296875 168.69335938 C84.61972766 168.79908564 89.80983298 168.90070485 95 169 C95 172.3 95 175.6 95 179 C16.79 179 -61.42 179 -142 179 C-142 175.7 -142 172.4 -142 169 C-140.36140015 168.97812622 -140.36140015 168.97812622 -138.68969727 168.95581055 C-134.54991477 168.89685827 -130.41062275 168.81965414 -126.27124023 168.73754883 C-124.49593192 168.70474683 -122.72053047 168.67658369 -120.94506836 168.65356445 C-98.48147859 168.49619936 -98.48147859 168.49619936 -77.5 161.3125 C-76.84112793 160.96074707 -76.18225586 160.60899414 -75.50341797 160.24658203 C-57.02565105 150.03482478 -46.80634044 129.91125476 -39.25390625 110.9296875 C-38.90952011 110.06543152 -38.56513397 109.20117554 -38.21031189 108.31072998 C-34.56856152 99.06295421 -31.313629 89.68915649 -28.10009766 80.28570557 C-26.28698956 74.98108456 -24.45718575 69.68221972 -22.62890625 64.3828125 C-22.25307404 63.29229584 -21.87724182 62.20177917 -21.49002075 61.07821655 C-17.23019789 48.73566447 -12.86967811 36.42900414 -8.5 24.125 C-8.12706818 23.07477661 -7.75413635 22.02455322 -7.36990356 20.94250488 C-7.00686127 19.92023804 -6.64381897 18.89797119 -6.26977539 17.84472656 C-5.92278091 16.86762726 -5.57578644 15.89052795 -5.21827698 14.88381958 C-4.56965141 13.05804333 -3.92061765 11.23241202 -3.27110291 9.4069519 C-2.98505692 8.60250641 -2.69901093 7.79806091 -2.40429688 6.96923828 C-2.15578979 6.27097931 -1.90728271 5.57272034 -1.65124512 4.853302 C-1.08472342 3.24110443 -0.54038207 1.62114622 0 0 Z " fill="#033F22" transform="translate(520,1197)"/>
<path d="M0 0 C3.375 0.6875 3.375 0.6875 4.375 1.6875 C6.52693596 12.31407034 0.99324946 21.52341581 -3.625 30.6875 C-4.05796387 31.54698242 -4.49092773 32.40646484 -4.93701172 33.29199219 C-12.57549276 48.32407765 -12.57549276 48.32407765 -15.375 51.9609375 C-16.86330339 54.01665656 -17.10340601 55.4283721 -17.3125 57.9375 C-17.4671875 59.79375 -17.4671875 59.79375 -17.625 61.6875 C-17.01914063 61.16800781 -16.41328125 60.64851563 -15.7890625 60.11328125 C-1.4600206 48.18710945 -1.4600206 48.18710945 7.375 48.6875 C7.705 50.0075 8.035 51.3275 8.375 52.6875 C7.4365625 53.21859375 6.498125 53.7496875 5.53125 54.296875 C4.3120459 55.00964048 3.0933203 55.7232249 1.875 56.4375 C1.25496094 56.78554687 0.63492187 57.13359375 -0.00390625 57.4921875 C-2.01621973 58.64245722 -2.01621973 58.64245722 -4.625 60.6875 C-4.625 62.0075 -4.625 63.3275 -4.625 64.6875 C9.69244702 69.11484023 26.52274735 64.02844939 39.375 57.6875 C43.69306837 55.27036496 46.66947368 52.43045788 49.8125 48.625 C53.98048815 43.68135486 58.25604925 41.09943689 64.6875 40.25 C67.375 40.6875 67.375 40.6875 69.25 41.75 C71.06453275 44.87502863 70.86993962 47.16105518 70.375 50.6875 C66.64857191 54.75269428 61.46817929 57.45563489 55.92578125 57.87109375 C53.73324688 57.87453572 51.5630969 57.82146512 49.375 57.6875 C49.97015684 60.36570579 50.65701204 62.16449026 52.91772461 63.8112793 C58.47916444 66.74210794 63.19811839 67.35557718 69.4375 67.25 C70.82122803 67.23356445 70.82122803 67.23356445 72.23291016 67.21679688 C86.74531682 66.76289015 101.85201734 60.60868789 113.16015625 51.42578125 C115.375 49.6875 115.375 49.6875 117.6875 49.9375 C118.244375 50.185 118.80125 50.4325 119.375 50.6875 C118.77235137 54.23840483 118.465807 54.61607473 115.41015625 57.01953125 C114.09696636 57.86376093 112.77177535 58.68950588 111.4375 59.5 C110.38115356 60.15150024 110.38115356 60.15150024 109.3034668 60.81616211 C93.55298079 70.19042284 75.4490752 75.9776896 57.08203125 71.96875 C52.21878551 70.14411317 48.65375378 67.81238379 45.375 63.6875 C45.045 62.6975 44.715 61.7075 44.375 60.6875 C43.70597656 61.07421875 43.03695313 61.4609375 42.34765625 61.859375 C30.57054038 68.24589152 18.62486219 70.99175121 5.25 71.1875 C4.46874756 71.20603027 3.68749512 71.22456055 2.88256836 71.24365234 C-2.70213549 71.18226213 -5.98668684 69.78791092 -10.625 66.6875 C-10.625 65.6975 -10.625 64.7075 -10.625 63.6875 C-13.40929735 65.77572301 -15.58935728 67.63997637 -17.6875 70.4375 C-18.326875 71.18 -18.96625 71.9225 -19.625 72.6875 C-20.945 72.6875 -22.265 72.6875 -23.625 72.6875 C-23.65249766 71.31261713 -23.6716164 69.93756609 -23.6875 68.5625 C-23.69910156 67.79679687 -23.71070313 67.03109375 -23.72265625 66.2421875 C-23.61123099 63.32730266 -23.15254849 60.55370835 -22.625 57.6875 C-23.48222656 58.09742188 -24.33945313 58.50734375 -25.22265625 58.9296875 C-26.36605469 59.46851563 -27.50945312 60.00734375 -28.6875 60.5625 C-29.81285156 61.09617187 -30.93820312 61.62984375 -32.09765625 62.1796875 C-40.22101134 65.65212943 -46.76717757 65.8460051 -55.41796875 65.34570312 C-60.96322763 65.13404549 -60.96322763 65.13404549 -65.52734375 68.1640625 C-66.21957031 68.99679687 -66.91179687 69.82953125 -67.625 70.6875 C-71.97429217 71.39920236 -74.03574691 70.99880352 -77.9375 68.9375 C-80.48880737 66.80152174 -81.31436149 65.61643864 -82.625 62.6875 C-83.34945313 63.16960937 -84.07390625 63.65171875 -84.8203125 64.1484375 C-85.78710938 64.78007813 -86.75390625 65.41171875 -87.75 66.0625 C-88.70132812 66.68898438 -89.65265625 67.31546875 -90.6328125 67.9609375 C-97.89949435 72.15398369 -105.79674102 73.13485098 -113.96875 71.10546875 C-119.7192861 68.68360835 -122.84591846 64.14039483 -125.625 58.6875 C-125.625 58.0275 -125.625 57.3675 -125.625 56.6875 C-132.91335865 58.28738361 -137.54913057 63.69357437 -141.625 69.6875 C-143.605 69.1925 -143.605 69.1925 -145.625 68.6875 C-145.68107422 67.78257813 -145.68107422 67.78257813 -145.73828125 66.859375 C-146.18753341 60.69382228 -146.18753341 60.69382228 -149.625 55.6875 C-157.06059336 56.70679048 -162.37087598 61.9341056 -166.9375 67.625 C-167.36675781 68.21152344 -167.79601563 68.79804687 -168.23828125 69.40234375 C-169.625 70.6875 -169.625 70.6875 -173.625 70.6875 C-173.48331863 69.24958484 -173.33648957 67.8121763 -173.1875 66.375 C-173.06568359 65.17423828 -173.06568359 65.17423828 -172.94140625 63.94921875 C-172.625 61.6875 -172.625 61.6875 -171.625 58.6875 C-172.66398437 59.36296875 -173.70296875 60.0384375 -174.7734375 60.734375 C-197.71570121 75.47569509 -197.71570121 75.47569509 -210.625 73.6875 C-214.89735234 72.04820775 -218.29967513 69.69222617 -220.625 65.6875 C-220.955 64.6975 -221.285 63.7075 -221.625 62.6875 C-225.58117787 62.93476112 -227.56509612 64.34581036 -230.5 66.8125 C-233.6934728 69.35152297 -234.25616522 69.69335452 -238.5625 69.625 C-241.625 68.6875 -241.625 68.6875 -242.625 67.6875 C-243.73375136 59.84704398 -241.60030303 54.36033008 -237.625 47.6875 C-236.305 47.6875 -234.985 47.6875 -233.625 47.6875 C-234.31436071 51.59871498 -235.40750181 55.24258596 -236.6875 59 C-237.23083984 60.60294922 -237.23083984 60.60294922 -237.78515625 62.23828125 C-238.20087891 63.45064453 -238.20087891 63.45064453 -238.625 64.6875 C-229.42364863 61.94667193 -224.37718606 53.9329172 -218.625 46.6875 C-217.14 47.1825 -217.14 47.1825 -215.625 47.6875 C-215.65980469 48.80769531 -215.69460938 49.92789062 -215.73046875 51.08203125 C-215.75860839 52.55467251 -215.78590837 54.02732998 -215.8125 55.5 C-215.83763672 56.23798828 -215.86277344 56.97597656 -215.88867188 57.73632812 C-216.00258394 61.94372082 -216.00258394 61.94372082 -214.23828125 65.63671875 C-209.8787108 68.47624526 -205.69731196 68.16324788 -200.625 67.6875 C-189.88478761 65.31148889 -179.57911191 58.42394016 -171.5 51.125 C-168.625 48.6875 -168.625 48.6875 -164.625 48.6875 C-165.12 53.6375 -165.12 53.6375 -165.625 58.6875 C-164.99851562 58.19378906 -164.37203125 57.70007812 -163.7265625 57.19140625 C-162.90929688 56.55074219 -162.09203125 55.91007812 -161.25 55.25 C-160.43789062 54.61191406 -159.62578125 53.97382812 -158.7890625 53.31640625 C-154.96409336 50.43732298 -152.42677527 50.19918387 -147.625 50.6875 C-144.12970664 53.42294698 -142.48912307 55.38527025 -141.625 59.6875 C-140.91214844 59.09839844 -140.19929688 58.50929688 -139.46484375 57.90234375 C-131.79233212 51.88205535 -131.79233212 51.88205535 -126.875 51.0625 C-122.5401044 53.2299478 -120.79290868 56.16199796 -118.30078125 60.2421875 C-116.55660277 62.78730574 -115.30976887 64.18306195 -112.625 65.6875 C-103.08703904 67.39638467 -95.59538553 64.8255312 -87.625 59.6875 C-84.04053516 57.06327712 -81.0117288 54.0742288 -77.875 50.9375 C-73.67378049 46.73628049 -73.67378049 46.73628049 -69.9375 46.5625 C-69.174375 46.60375 -68.41125 46.645 -67.625 46.6875 C-67.295 47.3475 -66.965 48.0075 -66.625 48.6875 C-64.96678227 49.06059899 -63.29922986 49.39450977 -61.625 49.6875 C-59.69926764 51.61323236 -60.1378147 55.04287698 -59.90625 57.65625 C-59.83434163 59.67930593 -59.83434163 59.67930593 -58.625 60.6875 C-45.15648053 61.97929196 -33.64789978 58.34229152 -22.625 50.6875 C-20.96984803 49.03234803 -21.1416996 46.92282118 -20.828125 44.6484375 C-15.96673947 10.95266784 -15.96673947 10.95266784 -6.625 1.6875 C-3.625 -0.3125 -3.625 -0.3125 0 0 Z " fill="#9B8678" transform="translate(1478.625,1048.3125)"/>
<path d="M0 0 C2.2421875 1.5390625 2.2421875 1.5390625 3.875 3.625 C4.42929688 4.29789063 4.98359375 4.97078125 5.5546875 5.6640625 C9.49258869 12.02856226 9.21748988 18.06554902 9.0625 25.3125 C9.02823893 27.30852438 8.99805945 29.30462449 8.97265625 31.30078125 C8.95468994 32.17903564 8.93672363 33.05729004 8.91821289 33.9621582 C8.76909681 35.99515736 8.76909681 35.99515736 10 37 C11.68183948 37.23287008 13.3712416 37.41264166 15.0625 37.5625 C15.98160156 37.64628906 16.90070313 37.73007813 17.84765625 37.81640625 C18.91306641 37.90728516 18.91306641 37.90728516 20 38 C20 39.32 20 40.64 20 42 C18.86111328 42.05607422 18.86111328 42.05607422 17.69921875 42.11328125 C16.70535156 42.17902344 15.71148438 42.24476562 14.6875 42.3125 C13.70136719 42.37050781 12.71523437 42.42851563 11.69921875 42.48828125 C8.57583419 43.08041349 7.78153445 43.40192893 6 46 C5.02412693 48.43248596 4.1480086 50.83344458 3.3125 53.3125 C-1.27174312 66.11496152 -7.8599339 76.85828282 -17 87 C-17.7321875 87.8146875 -18.464375 88.629375 -19.21875 89.46875 C-26.94301757 97.62818758 -36.51773102 104.30054588 -47.984375 105.24609375 C-54.9686633 105.39377149 -61.19273725 105.36065277 -66.75 100.6875 C-70.7918057 95.85978764 -72.60148859 92.7250833 -72.33984375 86.3828125 C-70.80250678 75.60378319 -62.74009193 65.80483635 -54.4375 59.3125 C-36.9457059 47.05947631 -18.65825043 42.32494366 2 38 C4.46227271 27.90156507 5.88823462 18.32503134 1.0703125 8.70703125 C-0.01296916 6.83805914 -0.01296916 6.83805914 -2 5 C-6.80257534 5.27171572 -9.83765976 6.90331722 -13.8125 9.5 C-18.73061112 12.46308558 -23.12662112 14.86921041 -29 14 C-31.5625 12.3125 -31.5625 12.3125 -33 10 C-33 8.68 -33 7.36 -33 6 C-31.68 6 -30.36 6 -29 6 C-28.505 6.99 -28.505 6.99 -28 8 C-21.88068102 8.59519212 -18.25346048 6.08095349 -13.38671875 2.84375 C-8.71656231 -0.068597 -5.51069842 -0.69167202 0 0 Z " fill="#FDFDFD" transform="translate(1233,1026)"/>
<path d="M0 0 C1.32 0 2.64 0 4 0 C5.22126283 2.44252565 5.15067944 4.07201574 5.18945312 6.80322266 C5.21452942 8.30848007 5.21452942 8.30848007 5.2401123 9.84414673 C5.26047546 11.48750504 5.26047546 11.48750504 5.28125 13.1640625 C5.29965942 14.30289886 5.31806885 15.44173523 5.33703613 16.61508179 C5.39590732 20.28500059 5.44847224 23.95497127 5.5 27.625 C5.7016481 41.53118036 5.91201786 55.43653259 6.40625 69.3359375 C6.43521362 70.31237213 6.46417725 71.28880676 6.49401855 72.29483032 C6.6998156 77.49935047 7.0881152 82.12644946 9 87 C13.83521761 89.85966842 18.94210902 90.76741167 24.4375 91.6875 C25.53481445 91.88182617 25.53481445 91.88182617 26.65429688 92.08007812 C28.434877 92.39429815 30.21726583 92.69824068 32 93 C32 94.32 32 95.64 32 97 C25.52090011 97.21089294 20.16628631 96.97321162 14 95 C11.20755955 94.83071457 11.20755955 94.83071457 9 95 C9.36560028 98.72912289 9.66857996 101.45188224 11.625 104.6875 C13 107 13 107 12.6875 109.3125 C12.3471875 110.1478125 12.3471875 110.1478125 12 111 C10.1875 110.875 10.1875 110.875 8 110 C5.44511214 105.67233281 4.28455034 101.53153979 3.3125 96.625 C2.93544922 94.75714844 2.93544922 94.75714844 2.55078125 92.8515625 C2.36902344 91.91054687 2.18726563 90.96953125 2 90 C1.44054687 89.84144531 0.88109375 89.68289063 0.3046875 89.51953125 C-6.17242096 87.63471352 -12.42565528 85.36184611 -18.703125 82.890625 C-22.45292198 81.87764667 -24.34420116 81.66746628 -28 83 C-29.89260368 85.18628356 -31.35142118 87.14660132 -32.875 89.5625 C-33.74484405 90.8485545 -34.61985501 92.13112942 -35.5 93.41015625 C-35.92539062 94.03035645 -36.35078125 94.65055664 -36.7890625 95.28955078 C-42.19755807 102.92905077 -49.12181729 107.98913804 -58 111 C-69.26620794 112.74546884 -80.03091328 108.97654249 -90 104 C-90.99902344 103.50628906 -91.99804688 103.01257812 -93.02734375 102.50390625 C-107.95293615 94.81926712 -123.84900384 83.44894131 -133 69 C-133.61875 68.030625 -134.2375 67.06125 -134.875 66.0625 C-136.38419088 61.95414705 -136.86698672 58.31902557 -136 54 C-133.47031526 50.71824682 -131.92268669 49.30756223 -128 48 C-117.33709212 47.21463001 -107.38101404 48.81021833 -97 51 C-96.2997168 51.14453613 -95.59943359 51.28907227 -94.87792969 51.43798828 C-81.19539108 54.30465472 -68.16056637 58.64448451 -55.10546875 63.609375 C-53.29925049 64.29265869 -53.29925049 64.29265869 -51.45654297 64.98974609 C-49.06713286 65.89806131 -46.68183892 66.81729587 -44.30126953 67.74853516 C-38.66759055 69.89622618 -34.05463457 71.64839791 -28 71 C-19.67591522 57.19012869 -14.47646317 42.0955365 -9 27 C-8.77258118 26.37825897 -8.54516235 25.75651794 -8.31085205 25.11593628 C-7.62958391 23.25302154 -6.95341755 21.38824361 -6.27734375 19.5234375 C-5.881521 18.43337402 -5.48569824 17.34331055 -5.07788086 16.22021484 C-3.64726742 11.94619644 -2.576139 7.62289083 -1.578125 3.23046875 C-1 1 -1 1 0 0 Z M-132 56 C-131.71454575 62.70817495 -129.01215954 66.73575423 -125 72 C-124.50628906 72.66 -124.01257813 73.32 -123.50390625 74 C-111.53886512 88.79965187 -91.06892352 100.9260075 -73 106 C-62.47067421 107.11142883 -54.41573828 106.14827064 -46.08203125 99.4609375 C-39.81277449 93.62070273 -33.98120853 86.66734201 -33 78 C-38.05809719 73.81654314 -44.21782556 72.08579932 -50.3125 69.875 C-50.96650787 69.63588898 -51.62051575 69.39677795 -52.29434204 69.15042114 C-62.65208714 65.37748118 -73.10153594 62.00926436 -83.6875 58.9375 C-84.32918121 58.75000183 -84.97086243 58.56250366 -85.63198853 58.36932373 C-96.72471127 55.14729708 -107.35013286 52.64058758 -118.9375 52.6875 C-120.17209961 52.66333008 -120.17209961 52.66333008 -121.43164062 52.63867188 C-125.85108197 52.63508758 -128.74651047 52.64012934 -132 56 Z " fill="#9B8578" transform="translate(496,1009)"/>
<path d="M0 0 C2.2421875 1.5390625 2.2421875 1.5390625 3.875 3.625 C4.42929688 4.29789063 4.98359375 4.97078125 5.5546875 5.6640625 C9.49258869 12.02856226 9.21748988 18.06554902 9.0625 25.3125 C9.02823893 27.30852438 8.99805945 29.30462449 8.97265625 31.30078125 C8.95468994 32.17903564 8.93672363 33.05729004 8.91821289 33.9621582 C8.76909681 35.99515736 8.76909681 35.99515736 10 37 C11.68183948 37.23287008 13.3712416 37.41264166 15.0625 37.5625 C15.98160156 37.64628906 16.90070313 37.73007813 17.84765625 37.81640625 C18.91306641 37.90728516 18.91306641 37.90728516 20 38 C20 39.32 20 40.64 20 42 C18.86111328 42.05607422 18.86111328 42.05607422 17.69921875 42.11328125 C16.70535156 42.17902344 15.71148438 42.24476562 14.6875 42.3125 C13.70136719 42.37050781 12.71523437 42.42851563 11.69921875 42.48828125 C8.57583419 43.08041349 7.78153445 43.40192893 6 46 C5.02412693 48.43248596 4.1480086 50.83344458 3.3125 53.3125 C-1.27174312 66.11496152 -7.8599339 76.85828282 -17 87 C-17.7321875 87.8146875 -18.464375 88.629375 -19.21875 89.46875 C-26.94301757 97.62818758 -36.51773102 104.30054588 -47.984375 105.24609375 C-54.9686633 105.39377149 -61.19273725 105.36065277 -66.75 100.6875 C-70.7918057 95.85978764 -72.60148859 92.7250833 -72.33984375 86.3828125 C-70.80250678 75.60378319 -62.74009193 65.80483635 -54.4375 59.3125 C-36.9457059 47.05947631 -18.65825043 42.32494366 2 38 C4.46227271 27.90156507 5.88823462 18.32503134 1.0703125 8.70703125 C-0.01296916 6.83805914 -0.01296916 6.83805914 -2 5 C-6.80257534 5.27171572 -9.83765976 6.90331722 -13.8125 9.5 C-18.73061112 12.46308558 -23.12662112 14.86921041 -29 14 C-31.5625 12.3125 -31.5625 12.3125 -33 10 C-33 8.68 -33 7.36 -33 6 C-31.68 6 -30.36 6 -29 6 C-28.505 6.99 -28.505 6.99 -28 8 C-21.88068102 8.59519212 -18.25346048 6.08095349 -13.38671875 2.84375 C-8.71656231 -0.068597 -5.51069842 -0.69167202 0 0 Z M-59.5 70.06640625 C-64.37687211 76.35299921 -68.05950287 82.61450476 -67.52734375 90.765625 C-66.61446976 94.63350589 -64.9683181 96.36899077 -62 99 C-54.28056407 101.78177871 -44.14234619 101.05709904 -36.8125 97.6875 C-18.88599658 87.39903634 -6.86605969 69.13659211 0 50 C0.25124826 47.33238236 0.25124826 47.33238236 0 45 C-1.00351145 43.78417118 -1.00351145 43.78417118 -3.01171875 43.80859375 C-22.77515192 45.07448685 -46.02327536 55.47785183 -59.5 70.06640625 Z " fill="#9B8578" transform="translate(1233,1026)"/>
<path d="M0 0 C0.66 0 1.32 0 2 0 C2.17685715 8.0490469 2.34281945 16.09821238 2.49477577 24.14776421 C2.56567548 27.8852667 2.64036314 31.6226143 2.72363281 35.35986328 C2.80381545 38.96476224 2.87414562 42.56972974 2.93757248 46.17496109 C2.9635482 47.5521773 2.99310745 48.92933063 3.02626419 50.30639267 C3.07200549 52.23124214 3.10396519 54.15640433 3.13525391 56.08154297 C3.15746002 57.17852509 3.17966614 58.2755072 3.20254517 59.4057312 C3 62 3 62 1 64 C-7.6959542 64 -15.14903166 60.382433 -23 57 C-21.73792145 52.80621816 -20.08626566 49.03327978 -18.13110352 45.13696289 C-11.93186414 32.73982221 -7.46246475 19.81924441 -3.00219727 6.72290039 C-2.13769022 4.37409477 -1.17525183 2.20586234 0 0 Z " fill="#FBFAF9" transform="translate(495,1028)"/>
<path d="M0 0 C1.32 0 2.64 0 4 0 C3.49943325 5.91459128 2.24700829 10.51364078 -0.25 15.875 C-0.56138916 16.56464844 -0.87277832 17.25429687 -1.19360352 17.96484375 C-3.6567913 23.3781653 -6.24924571 28.72666458 -9 34 C-9.66 34 -10.32 34 -11 34 C-10.84299567 27.26308681 -9.66045314 21.09829923 -7.6875 14.6875 C-7.48680908 14.01847656 -7.28611816 13.34945313 -7.0793457 12.66015625 C-5.55706457 7.92285983 -3.56415767 3.56415767 0 0 Z " fill="#FAF9F8" transform="translate(1475,1053)"/>
<path d="M0 0 C-0.63150494 12.63009884 -6.95035195 23.19083058 -13 34 C-13.33 34 -13.66 34 -14 34 C-14.18132348 28.82220742 -13.59965747 24.18174365 -12.3125 19.1875 C-12.13605957 18.49261475 -11.95961914 17.79772949 -11.77783203 17.08178711 C-10.25595338 11.39091131 -8.28954156 5.93431235 -5 1 C-3 0 -3 0 0 0 Z " fill="#FBFAFA" transform="translate(553,1053)"/>
<path d="M0 0 C0.66 0 1.32 0 2 0 C2.44423928 6.63347126 1.16117167 10.98753382 -1.6875 16.9375 C-2.05037109 17.72366699 -2.41324219 18.50983398 -2.78710938 19.31982422 C-5.2917936 24.68621028 -7.97978152 29.90338131 -11 35 C-11.33 35 -11.66 35 -12 35 C-12.81943372 22.91335261 -8.43549783 12.09453803 -2 2 C-1.34 1.34 -0.68 0.68 0 0 Z " fill="#F8F7F6" transform="translate(1018,1052)"/>
<path d="M0 0 C3.15360454 1.05120151 5.08774527 2.76203536 7.625 4.875 C6.18854149 6.48009934 4.75079294 8.08404424 3.3125 9.6875 C2.51199219 10.58082031 1.71148438 11.47414063 0.88671875 12.39453125 C0.14035156 13.21308594 -0.60601563 14.03164062 -1.375 14.875 C-2.19677734 15.78572266 -2.19677734 15.78572266 -3.03515625 16.71484375 C-3.47730469 17.09769531 -3.91945313 17.48054688 -4.375 17.875 C-6.51245922 17.62353421 -7.83425779 17.41574221 -9.375 15.875 C-9.98383333 9.78666673 -8.7303307 6.76419616 -5.375 1.875 C-2.375 -0.125 -2.375 -0.125 0 0 Z " fill="#FAFAF9" transform="translate(990.375,1099.125)"/>
<path d="M0 0 C0.66 0 1.32 0 2 0 C1.68474155 6.62042752 0.46145565 12.70121114 -1.3125 19.0625 C-1.51319092 19.8248999 -1.71388184 20.5872998 -1.9206543 21.37280273 C-2.55078125 23.53515625 -2.55078125 23.53515625 -4 27 C-6.09057617 27.71655273 -6.09057617 27.71655273 -8 28 C-7.34884875 18.55830681 -5.62129375 7.82860805 0 0 Z " fill="#F8F7F6" transform="translate(738,1047)"/>
<path d="M0 0 C0.99 0.33 1.98 0.66 3 1 C2.79375 2.093125 2.5875 3.18625 2.375 4.3125 C1.59653475 8.0838401 1.59653475 8.0838401 4 11 C3.625 13.1875 3.625 13.1875 3 15 C0.02211118 15.90991047 -1.43497994 16.25960381 -4.3125 14.9375 C-6 13 -6 13 -6.625 10.25 C-5.74682223 5.68347558 -3.21382646 3.23295638 0 0 Z " fill="#F8F6F5" transform="translate(786,1099)"/>
<path d="M0 0 C-0.29296875 1.98567708 -0.5859375 3.97135417 -0.87890625 5.95703125 C-1.13904799 8.2025342 -1.13904799 8.2025342 0 11 C0.66 11 1.32 11 2 11 C1.3125 12.9375 1.3125 12.9375 0 15 C-2.4375 15.9375 -2.4375 15.9375 -5 16 C-6.8125 15 -6.8125 15 -8 13 C-8.54763378 8.77539655 -8.473273 6.72568527 -6.125 3.125 C-3 0 -3 0 0 0 Z " fill="#F9F8F7" transform="translate(1410,1099)"/>
<path d="M0 0 C-0.23046875 1.859375 -0.23046875 1.859375 -1 4 C-2.92578125 5.265625 -2.92578125 5.265625 -5.3125 6.25 C-6.09238281 6.58515625 -6.87226562 6.9203125 -7.67578125 7.265625 C-10 8 -10 8 -14 8 C-11.72632717 1.63371608 -6.41192463 -0.61065949 0 0 Z " fill="#F8F6F5" transform="translate(1545,1094)"/>
<path d="M0 0 C0.825 0.144375 1.65 0.28875 2.5 0.4375 C2.26953125 2.29296875 2.26953125 2.29296875 1.5 4.4375 C-0.42578125 5.73828125 -0.42578125 5.73828125 -2.8125 6.75 C-3.98232422 7.27013672 -3.98232422 7.27013672 -5.17578125 7.80078125 C-7.73499813 8.50187764 -9.03099982 8.31323233 -11.5 7.4375 C-4.60284464 0.57535558 -4.60284464 0.57535558 0 0 Z " fill="#FAF9F9" transform="translate(1073.5,1093.5625)"/>
<path d="M0 0 C0.86625 0.3403125 0.86625 0.3403125 1.75 0.6875 C1.37607279 3.39847227 0.93642373 4.50750467 -1.0625 6.4375 C-3.25 7.6875 -3.25 7.6875 -7.25 7.6875 C-6.91753345 4.61218444 -6.61895244 3.06917494 -4.4375 0.8125 C-2.25 -0.3125 -2.25 -0.3125 0 0 Z " fill="#A18D81" transform="translate(933.25,1083.3125)"/>
<path d="M0 0 C0.99 0.33 1.98 0.66 3 1 C2.62607279 3.71097227 2.18642373 4.82000467 0.1875 6.75 C-2 8 -2 8 -6 8 C-6 6.68 -6 5.36 -6 4 C-3.1875 1.6875 -3.1875 1.6875 0 0 Z " fill="#9D887B" transform="translate(605,1083)"/>
</svg>
